# xmcd
#
# Track frame offsets:
#	150
#	23025
#	58720
#	82425
#	118810
#	151220
#	183135
#	214570
#
# Disc length: 3187 seconds
#
# Revision: 1
# Processed by: cddbd v1.5.1PL0 Copyright (c) Steve Scherf et al.
# Submitted via: EasyCDDAExtractor 5.1.0
#
DISCID=660c7108
DTITLE=Dio - Astoria London 14-08-04 Disc 2
DYEAR=2004
DGENRE=Hard Rock
TTITLE0=Rock and Roll Children
TTITLE1=Gates Of Babylon
TTITLE2=Holy Diver
TTITLE3=Heaven and Hell
TTITLE4=The Last In Line
TTITLE5=Rainbow In The Dark
TTITLE6=We Rock
TTITLE7=Neon Knights
EXTD=
EXTT0=
EXTT1=
EXTT2=
EXTT3=
EXTT4=
EXTT5=
EXTT6=
EXTT7=
PLAYORDER=
